<?xml version="1.0" encoding="UTF-8" standalone="no"?>
<!-- Created with Inkscape (http://www.inkscape.org/) -->

<svg
   width="32"
   height="32"
   viewBox="0 0 32 32"
   version="1.1"
   id="svg1"
   xml:space="preserve"
   sodipodi:docname="TOTP.svg"
   inkscape:export-filename="TOTP.png"
   inkscape:export-xdpi="450"
   inkscape:export-ydpi="450"
   inkscape:version="1.3.2 (091e20e, 2023-11-25, custom)"
   xmlns:inkscape="http://www.inkscape.org/namespaces/inkscape"
   xmlns:sodipodi="http://sodipodi.sourceforge.net/DTD/sodipodi-0.dtd"
   xmlns="http://www.w3.org/2000/svg"
   xmlns:svg="http://www.w3.org/2000/svg"><sodipodi:namedview
     id="namedview1"
     pagecolor="#ffffff"
     bordercolor="#000000"
     borderopacity="0.25"
     inkscape:showpageshadow="2"
     inkscape:pageopacity="0.0"
     inkscape:pagecheckerboard="0"
     inkscape:deskcolor="#d1d1d1"
     inkscape:document-units="px"
     inkscape:zoom="14.046875"
     inkscape:cx="11.6396"
     inkscape:cy="27.799778"
     inkscape:window-width="1920"
     inkscape:window-height="1137"
     inkscape:window-x="-8"
     inkscape:window-y="-8"
     inkscape:window-maximized="1"
     inkscape:current-layer="layer1" /><defs
     id="defs1" /><g
     inkscape:label="Calque 1"
     inkscape:groupmode="layer"
     id="layer1"><path
       d="m -16.54271,-18.139425 v 0.0019 h -9.793062 c -0.467743,0 -0.84481,0.375193 -0.84481,0.842937 v 4.162238 c 0,0.01673 0.0047,0.03222 0.0056,0.0487 -6.69e-4,0.01463 -0.0056,0.02829 -0.0056,0.04308 v 4.7672802 c 0,0.55441 0.475359,1.000286 1.063974,1.000286 h 0.0206 l 3.062673,-4.4469642 c 0.185128,-0.268939 0.418988,-0.461552 0.653745,-0.567578 h 5.836875 v 24.83856 h 3.916848 3.8775144 V -3.1744748 h 9.93355 c 1.285943,0 2.324635,-0.747526 2.324635,-1.676508 V -16.461043 c 0,-0.928982 -1.038692,-1.678382 -2.324635,-1.678382 H -10.3031 c -0.009,0 -0.01724,0.0018 -0.02622,0.0019 h -2.29654 v -0.0019 z m 9.0344174,3.004604 h 5.900562 c 0.66026398,0 1.18947898,0.382813 1.18947898,0.859796 v 7.2380232 c 0,0.476983 -0.529215,0.859797 -1.18947898,0.859797 h -5.900562 c -0.660264,0 -1.191353,-0.382814 -1.191353,-0.859797 v -7.2380232 c 0,-0.476983 0.531089,-0.859796 1.191353,-0.859796 z"
       style="fill:#7f4912;stroke:#2c1616;stroke-width:1.30914;stroke-dasharray:none;stroke-opacity:1"
       id="path26" /><g
       style="clip-rule:evenodd;fill-rule:evenodd"
       id="g32"
       transform="matrix(0,-1.0574778,-1.0530037,0,18.954067,31.999999)"><path
         d="M 12.804,9 C 13.842,7.207 15.781,6 18,6 c 3.311,0 6,2.689 6,6 0,3.311 -2.689,6 -6,6 -2.219,0 -4.158,-1.207 -5.196,-3 H 9 L 7.494,13.497 6,15 4.52,13.497 3,15 0,11.968 2.53,9 Z m 7.696,1.5 c 0.828,0 1.5,0.672 1.5,1.5 0,0.828 -0.672,1.5 -1.5,1.5 -0.828,0 -1.5,-0.672 -1.5,-1.5 0,-0.828 0.672,-1.5 1.5,-1.5 z"
         id="path1-4" /></g><path
       d="M 17.939241,4.5601135 A 13.132677,13.188476 0 0 1 31.070938,17.747605 13.132677,13.188476 0 0 1 17.939241,30.937162 13.132677,13.188476 0 0 1 11.166699,29.047334 V 25.755107 A 10.465734,10.510201 0 0 0 17.939241,28.258356 10.465734,10.510201 0 0 0 28.405522,17.747605 10.465734,10.510201 0 0 0 17.939241,7.236854 10.465734,10.510201 0 0 0 13.305613,8.327378 C 12.730527,7.5825591 12.018507,6.9526569 11.205777,6.4726611 a 13.132677,13.188476 0 0 1 6.733464,-1.9125476 z"
       style="fill:#626f9c;stroke-width:1.78565;stroke-linejoin:round;paint-order:markers fill stroke"
       id="path47" /><ellipse
       style="fill:#20273d;fill-opacity:1;stroke:none;stroke-width:1.95833;stroke-linejoin:round;stroke-dasharray:none;stroke-opacity:1;paint-order:markers fill stroke"
       id="path48"
       cx="-17.939241"
       cy="17.748638"
       transform="scale(-1,1)"
       rx="1.966143"
       ry="1.9744968" /><path
       style="fill:#20273d;fill-opacity:1;stroke:none;stroke-width:2.47516;stroke-linejoin:round;stroke-dasharray:none;stroke-opacity:1;paint-order:markers fill stroke"
       d="m 16.359736,16.675274 7.31602,-5.21382 0.62264,1.250573 -5.314816,6.598239 z"
       id="path49" /><rect
       style="fill:#20273d;fill-opacity:1;stroke:none;stroke-width:1.32459;stroke-linejoin:round;stroke-dasharray:none;stroke-opacity:1;paint-order:markers fill stroke"
       id="rect49"
       width="4.2999363"
       height="3.8770266"
       x="-20.089211"
       y="-2.6710454e-08"
       transform="scale(-1,1)" /><path
       d="M 29.974493,5.5413646 32.000002,7.9820764 29.98574,9.6671958 A 7.1814763,7.2119895 0 0 0 28.022087,7.1745295 Z"
       style="fill:#20273d;stroke-width:1.36705;stroke-linejoin:round;paint-order:markers fill stroke"
       id="path50" /></g></svg>
